# xmcd CD database file
#
# Track frame offsets:
#	150
#	26455
#	47635
#
# Disc length: 983 seconds
#
# Revision: 1
# Processed by: cddbd v1.5.1PL2 Copyright (c) Steve Scherf et al.
# Submitted via: CDex 1.51
#
DISCID=1a03d503
DTITLE=YOU - Miss You
DYEAR=19961121
DGENRE=JPop
TTITLE0=Miss You
TTITLE1=ケーキを喰う女
TTITLE2=Miss You（オリジナル・カラオケ）
EXTD=YEAR: 19961121
EXTT0=
EXTT1=
EXTT2=
PLAYORDER=
